HIERARCHY
ROOT Hips
{
	OFFSET 0.000000 0.000000 0.000000 
	CHANNELS 6 Xposition Yposition Zposition Zrotation Yrotation Xrotation
	JOINT LeftUpLeg
	{
		OFFSET 1.363060 -1.794630 0.839290 
		CHANNELS 3 Zrotation Yrotation Xrotation
		JOINT LeftLeg
		{
			OFFSET 2.448110 -6.726130 0.000000 
			CHANNELS 3 Zrotation Yrotation Xrotation
			JOINT LeftFoot
			{
				OFFSET 2.562200 -7.039590 0.000000 
				CHANNELS 3 Zrotation Yrotation Xrotation
				JOINT LeftToeBase
				{
					OFFSET 0.157640 -0.433110 2.322550 
					CHANNELS 3 Zrotation Yrotation Xrotation
					End Site
					{
						OFFSET 0.000000 0.000000 0.000000 
					}
				}
			}
		}
	}
	JOINT RightUpLeg
	{
		OFFSET -1.305520 -1.794630 0.839290 
		CHANNELS 3 Zrotation Yrotation Xrotation
		JOINT RightLeg
		{
			OFFSET -2.542530 -6.985550 0.000000 
			CHANNELS 3 Zrotation Yrotation Xrotation
			JOINT RightFoot
			{
				OFFSET -2.568260 -7.056230 0.000000 
				CHANNELS 3 Zrotation Yrotation Xrotation
				JOINT RightToeBase
				{
					OFFSET -0.164730 -0.452590 2.363150 
					CHANNELS 3 Zrotation Yrotation Xrotation
					End Site
					{
						OFFSET 0.000000 0.000000 0.000000 
					}
				}
			}
		}
	}
	JOINT Spine
	{
		OFFSET 0.028270 2.035590 -0.193380 
		CHANNELS 3 Zrotation Yrotation Xrotation
		JOINT Spine1
		{
			OFFSET 0.056720 2.048850 -0.042750 
			CHANNELS 3 Zrotation Yrotation Xrotation
			JOINT Neck1
			{
				OFFSET -0.054170 1.746240 0.172020 
				CHANNELS 3 Zrotation Yrotation Xrotation
				JOINT Head
				{
					OFFSET 0.104070 1.761360 -0.123970 
					CHANNELS 3 Zrotation Yrotation Xrotation
					End Site
					{
						OFFSET 0.000000 0.000000 0.000000 
					}
				}
			}
			JOINT LeftArm
			{
				OFFSET 3.362410 1.200890 -0.311210 
				CHANNELS 3 Zrotation Yrotation Xrotation
				JOINT LeftForeArm
				{
					OFFSET 4.983000 -0.000000 -0.000000 
					CHANNELS 3 Zrotation Yrotation Xrotation
					JOINT LeftHand
					{
						OFFSET 3.483560 -0.000000 -0.000000 
						CHANNELS 3 Zrotation Yrotation Xrotation
						JOINT LeftHandIndex1
						{
							OFFSET 0.715260 -0.000000 -0.000000 
							CHANNELS 3 Zrotation Yrotation Xrotation
							End Site
							{
								OFFSET 0.000000 0.000000 0.000000 
							}
						}
					}
				}
			}
			JOINT RightArm
			{
				OFFSET -3.136600 1.374050 -0.404650 
				CHANNELS 3 Zrotation Yrotation Xrotation
				JOINT RightForeArm
				{
					OFFSET -5.241900 -0.000000 -0.000000 
					CHANNELS 3 Zrotation Yrotation Xrotation
					JOINT RightHand
					{
						OFFSET -3.444170 -0.000000 -0.000000 
						CHANNELS 3 Zrotation Yrotation Xrotation
						JOINT RightHandIndex1
						{
							OFFSET -0.622530 -0.000000 -0.000000 
							CHANNELS 3 Zrotation Yrotation Xrotation
							End Site
							{
								OFFSET 0.000000 0.000000 0.000000 
							}
						}
					}
				}
			}
		}
	}
}
MOTION
Frames: 9
Frame Time: 0.041667
-13.079033 17.609816 -29.986075 -5.508916 -0.537100 -4.399204 -15.076401 -5.233757 -31.770563 -0.336437 8.148731 21.012025 -0.181745 10.749185 25.689225 0.734400 -5.475100 -15.268800 27.474107 2.686819 0.807002 -8.282354 -14.939423 52.384560 0.228579 -7.980958 21.594899 -0.133700 2.356500 -6.492000 1.757602 2.903727 -1.926706 4.158773 2.003114 -6.485624 4.131619 -2.877137 11.544796 3.533300 -1.995100 6.963700 -79.956553 40.570019 41.994152 86.203571 -64.636865 -65.401308 -0.100345 -1.866882 -30.687071 -7.125000 0.000000 0.000000 76.297566 -13.315444 53.613409 -125.428496 56.085583 -93.592370 1.217658 -0.841383 -4.775841 7.125000 0.000000 0.000000 
-13.073135 17.658965 -29.418330 -5.836861 -0.159448 -4.922369 -15.074721 -4.470085 -30.565662 -0.882084 6.836626 17.076656 -0.273899 13.067223 28.280404 0.606400 -4.984400 -13.864000 27.571667 2.609667 0.560728 -8.707474 -15.272535 54.152933 -0.499301 -5.809907 24.131249 -0.087300 1.905700 -5.245100 1.819687 2.766248 -1.994101 4.601652 1.958666 -6.945867 4.139669 -2.795401 11.844514 3.542700 -1.980500 6.979900 -80.079615 42.776881 41.188815 90.809563 -65.293191 -68.602977 -0.089634 -1.761609 -31.583245 -7.125000 0.000000 0.000000 76.105143 -13.877283 54.286342 -126.659644 55.672662 -94.098803 1.364106 -1.628635 -4.307341 7.125000 0.000000 0.000000 
-13.055234 17.679970 -28.863415 -6.293341 -1.629306 -4.811131 -14.751400 -2.738325 -30.866535 -1.087614 6.186545 14.812010 -0.692091 15.930065 29.574304 0.396700 -4.044200 -11.201100 27.927461 4.571197 0.533685 -9.385981 -15.722413 56.625248 -0.613876 -4.942435 23.828614 -0.083900 1.868200 -5.141400 1.980657 3.089375 -2.105349 5.507260 2.178023 -7.419750 4.079982 -2.517548 12.059273 3.613000 -1.907100 6.715600 -81.317910 45.391991 39.538442 95.360518 -65.643337 -71.579541 -0.099896 -1.700277 -32.327470 -7.125000 0.000000 0.000000 75.386201 -14.448520 55.716039 -127.113603 55.514678 -94.414440 1.357128 -1.666061 -3.627339 7.125000 0.000000 0.000000 
-13.030298 17.699836 -28.271665 -6.630512 -0.558401 -5.344914 -15.413668 -1.958737 -30.273916 -1.298764 5.558336 12.888009 -0.706638 17.549947 31.212963 0.198400 -2.868100 -7.911900 27.960550 3.805929 -0.274924 -10.142401 -16.144733 58.919777 -0.501179 -5.888694 23.984546 -0.352700 3.815900 -10.559200 2.068774 2.329750 -2.086594 5.915274 1.813966 -7.252787 4.055518 -2.350920 12.154233 3.661900 -1.852800 6.537300 -82.091078 47.164904 38.349633 99.998761 -65.691686 -74.527535 -0.145014 -1.654628 -32.580361 -7.125000 0.000000 0.000000 75.193704 -14.646712 56.757622 -127.261048 55.478940 -94.500634 1.410740 -1.645682 -2.865662 7.125000 0.000000 0.000000 
-13.006706 17.685350 -27.698954 -7.022675 -0.188756 -5.856589 -15.713821 -1.264486 -29.924394 -1.280462 5.416203 12.064234 -1.201976 20.543848 32.049645 0.025800 -1.037500 -2.851900 28.024514 3.483515 -0.804060 -11.088923 -16.608042 61.797900 0.105587 -7.527130 21.245715 -0.330100 3.692700 -10.213700 2.144739 1.982651 -2.081062 6.221164 1.647373 -7.252936 3.991431 -2.120366 12.306292 3.657300 -1.760400 6.502600 -82.876884 48.795860 37.539460 104.777174 -65.376090 -77.548565 -0.220143 -1.599268 -32.175689 -7.125000 0.000000 0.000000 75.270369 -14.841137 57.160878 -127.255457 55.441042 -94.739992 1.272664 -1.211023 -3.370578 7.125000 0.000000 0.000000 
-12.991600 17.647273 -27.146212 -7.554891 0.000829 -6.426889 -15.677353 -0.844122 -29.470227 -1.155471 5.535245 11.916066 -1.657879 23.623742 33.021340 0.000400 0.133700 0.367400 28.241735 3.370622 -1.381552 -12.146125 -17.067159 64.868736 0.826899 -9.932757 18.766162 -0.155900 2.544300 -7.012500 2.107848 2.091651 -1.994597 5.849124 1.655383 -7.046637 4.098875 -2.280823 12.501714 3.645800 -1.816100 6.722200 -82.290251 49.219473 38.138857 109.253450 -64.806234 -80.410890 -0.260019 -1.560525 -31.927517 -7.125000 0.000000 0.000000 76.298028 -14.735123 56.223041 -126.944846 55.535774 -94.588984 1.224831 -1.083404 -4.269342 7.125000 0.000000 0.000000 
-12.977217 17.591399 -26.607025 -8.085384 0.130921 -6.788868 -15.671356 -0.564843 -29.369148 -0.968286 5.892302 12.563988 -1.388749 25.134349 35.114819 0.001300 0.236800 0.650700 28.396556 3.533983 -2.904230 -13.341697 -17.548639 68.250872 1.668286 -13.011262 16.570252 -0.046900 1.398000 -3.844500 1.904650 2.694868 -1.799910 4.533764 1.864920 -6.280142 4.130996 -3.110541 12.662942 3.405900 -2.120600 7.276300 -79.897224 47.696473 40.350802 112.911435 -64.162588 -82.796006 -0.301325 -1.523223 -32.029216 -7.125000 0.000000 0.000000 78.485100 -13.947231 53.834266 -126.299528 55.748992 -94.134176 1.219351 -1.074910 -5.114989 7.125000 0.000000 0.000000 
-12.965318 17.527971 -26.071046 -8.513150 -0.124938 -7.166775 -15.612377 -0.021867 -29.313462 -0.732991 6.374659 13.756509 -0.713453 25.284755 37.434031 0.057600 1.548500 4.259400 28.414164 4.000533 -4.687364 -14.525608 -17.986470 71.722682 2.545603 -15.702618 13.599900 -0.004900 0.453300 -1.245400 1.676496 3.669466 -1.389631 3.138540 2.258990 -4.613331 4.177133 -4.267745 13.134846 3.043900 -2.526400 8.506700 -77.417966 44.048144 42.879818 115.437790 -63.498570 -84.527197 -0.327210 -1.467925 -32.187700 -7.125000 0.000000 0.000000 81.071022 -11.868839 50.613260 -125.572182 56.011333 -93.608844 1.205431 -1.098280 -6.455536 7.125000 0.000000 0.000000 
-12.964594 17.446332 -25.539516 -8.641777 0.118847 -7.929226 -16.006488 0.522615 -29.086507 -0.550200 6.869392 15.602541 0.398628 22.121340 39.055263 0.439100 4.251800 11.786200 28.055679 3.717819 -6.340253 -15.602990 -18.317398 75.029278 3.181397 -17.278784 10.568039 -0.005400 -0.476500 1.309200 1.648839 3.766298 -1.182758 3.042079 2.276985 -4.110179 4.253210 -4.385375 13.471063 2.936800 -2.519100 9.088700 -77.007860 42.447382 43.557445 117.880037 -62.780176 -86.199367 -0.366395 -1.422598 -32.072459 -7.125000 0.000000 0.000000 82.556454 -11.386982 48.898193 -124.699057 56.324990 -93.031902 1.208678 -1.043964 -6.994406 7.125000 0.000000 0.000000 
